HIERARCHY
ROOT Hips
{
	OFFSET 56.877701 -32.693596 43.373703
	CHANNELS 6 Xposition Yposition Zposition Zrotation Xrotation Yrotation
	JOINT Chest
	{
		OFFSET -0.779999 1.005800 5.403099
		CHANNELS 6 Xposition Yposition Zposition Zrotation Xrotation Yrotation
		JOINT Chest2
		{
			OFFSET 0.000000 0.000000 4.236801
			CHANNELS 6 Xposition Yposition Zposition Zrotation Xrotation Yrotation
			JOINT Neck
			{
				OFFSET 0.000000 0.000000 9.874401
				CHANNELS 6 Xposition Yposition Zposition Zrotation Xrotation Yrotation
				JOINT Head
				{
					OFFSET 0.000000 0.000002 2.173893
					CHANNELS 6 Xposition Yposition Zposition Zrotation Xrotation Yrotation
					End Site
					{
						OFFSET 0.000000 0.000000 6.508102
					}
				}
			}
			JOINT LeftCollar
			{
				OFFSET 2.681599 -0.377600 5.432499
				CHANNELS 6 Xposition Yposition Zposition Zrotation Xrotation Yrotation
				JOINT LeftShoulder
				{
					OFFSET 5.161499 0.000000 0.000000
					CHANNELS 6 Xposition Yposition Zposition Zrotation Xrotation Yrotation
					JOINT LeftElbow
					{
						OFFSET 0.000000 0.000000 -10.869099
						CHANNELS 6 Xposition Yposition Zposition Zrotation Xrotation Yrotation
						JOINT LeftWrist
						{
							OFFSET 0.000000 0.000000 -13.344799
							CHANNELS 6 Xposition Yposition Zposition Zrotation Xrotation Yrotation
							End Site
							{
								OFFSET 0.000000 0.000000 -2.173901
							}
						}
					}
				}
			}
			JOINT RightCollar
			{
				OFFSET -2.381901 -1.419600 6.136600
				CHANNELS 6 Xposition Yposition Zposition Zrotation Xrotation Yrotation
				JOINT RightShoulder
				{
					OFFSET -4.550499 0.000000 0.000000
					CHANNELS 6 Xposition Yposition Zposition Zrotation Xrotation Yrotation
					JOINT RightElbow
					{
						OFFSET 0.000000 0.000000 -11.106499
						CHANNELS 6 Xposition Yposition Zposition Zrotation Xrotation Yrotation
						JOINT RightWrist
						{
							OFFSET 0.000000 0.000000 -12.874298
							CHANNELS 6 Xposition Yposition Zposition Zrotation Xrotation Yrotation
							End Site
							{
								OFFSET 0.000000 0.000000 -2.173901
							}
						}
					}
				}
			}
		}
	}
	JOINT LeftHip
	{
		OFFSET 2.431900 0.469601 -2.489399
		CHANNELS 6 Xposition Yposition Zposition Zrotation Xrotation Yrotation
		JOINT LeftKnee
		{
			OFFSET 0.000000 -0.000004 -18.200201
			CHANNELS 6 Xposition Yposition Zposition Zrotation Xrotation Yrotation
			JOINT LeftAnkle
			{
				OFFSET 0.000000 0.000000 -16.279900
				CHANNELS 6 Xposition Yposition Zposition Zrotation Xrotation Yrotation
				End Site
				{
					OFFSET 0.000000 -8.394100 0.000000
				}
			}
		}
	}
	JOINT RightHip
	{
		OFFSET -1.987999 -0.073502 -2.713001
		CHANNELS 6 Xposition Yposition Zposition Zrotation Xrotation Yrotation
		JOINT RightKnee
		{
			OFFSET 0.000000 -0.000004 -19.547802
			CHANNELS 6 Xposition Yposition Zposition Zrotation Xrotation Yrotation
			JOINT RightAnkle
			{
				OFFSET 0.000000 0.000000 -14.881199
				CHANNELS 6 Xposition Yposition Zposition Zrotation Xrotation Yrotation
				End Site
				{
					OFFSET 0.000000 -7.922699 0.000000
				}
			}
		}
	}
}
MOTION
Frames: 9
Frame Time: 0.041667
68.046700 -39.741295 42.554707 4334.048125 14.124311 -15.753452 -0.780000 1.005796 5.403089 -10.108552 -12.610407 -3.995168 0.000010 -0.000001 4.236804 19.375403 1.822869 2.143310 0.000005 0.000003 9.874395 -26.419829 -10.777636 35.107090 0.000003 0.000001 2.173891 -2.096894 2.293667 -4.559375 2.681604 -0.377601 5.432496 0.843980 -2.566952 -1.498649 5.161502 -0.000005 0.000014 160.853455 -172.020800 99.721793 0.000008 -0.000004 -10.869097 -3.777716 -6.370689 4.146733 0.000002 0.000003 -13.344809 -46.335505 -29.886176 13.503007 -2.381899 -1.419601 6.136587 24.988134 19.971968 31.536244 -4.550505 -0.000006 0.000001 -1168.470842 -530.853613 -432.969899 0.000000 -0.000003 -11.106504 730.019744 -21.422593 716.003922 0.000000 0.000003 -12.874286 -288.652701 1.680389 57.048568 2.431886 0.469595 -2.489398 -337.695153 -26.864157 24.197069 -0.000010 -0.000018 -18.200195 335.908321 48.265559 16.362831 0.000001 0.000002 -16.279888 -9.089757 34.186087 -12.581599 -1.988003 -0.073500 -2.713005 -47.953324 -37.418392 -27.129013 -0.000006 0.000005 -19.547798 -1815.273036 41.904939 6.464757 0.000009 0.000006 -14.881198 2232.225158 75.883347 -398.735789
68.051903 -39.737194 42.550400 4333.988238 14.036710 -15.562586 -0.779999 1.005796 5.403093 -10.100205 -12.403832 -4.263933 0.000009 0.000003 4.236801 19.245460 1.780215 2.147312 0.000004 0.000007 9.874398 -26.334933 -10.862262 35.223327 0.000008 0.000005 2.173896 -2.462548 2.517349 -4.619596 2.681608 -0.377597 5.432499 0.959762 -2.513636 -1.291129 5.161500 0.000003 0.000005 160.864219 -172.183209 99.609505 0.000001 -0.000000 -10.869101 -3.608607 -6.305977 4.158050 0.000004 -0.000001 -13.344815 -46.830253 -29.618811 13.491736 -2.381901 -1.419597 6.136592 25.131044 20.099567 31.735904 -4.550494 -0.000001 0.000006 -1168.658262 -530.887819 -432.955146 0.000010 0.000000 -11.106522 729.850191 -21.492350 715.965455 -0.000005 -0.000003 -12.874299 -288.700540 1.548893 55.597170 2.431892 0.469597 -2.489402 -337.792825 -26.826044 23.989720 0.000006 -0.000008 -18.200195 336.644998 48.289168 15.881566 -0.000004 0.000001 -16.279892 -9.440956 34.248754 -12.747961 -1.987997 -0.073494 -2.713005 -47.781401 -37.254495 -27.059133 -0.000002 -0.000003 -19.547794 -1817.072709 41.503573 7.197720 -0.000008 -0.000004 -14.881186 2234.442292 76.282285 -399.828537
68.054901 -39.731899 42.544704 4333.911303 13.936606 -15.547379 -0.779992 1.005795 5.403098 -10.051642 -12.235285 -4.204460 0.000004 -0.000004 4.236802 19.294709 1.780981 2.151462 -0.000002 0.000001 9.874393 -26.271716 -10.878711 35.187147 0.000002 0.000002 2.173884 -2.338319 2.339683 -4.542595 2.681601 -0.377602 5.432496 0.901661 -2.439024 -1.205271 5.161503 0.000000 0.000004 160.843879 -172.137747 99.427535 0.000006 -0.000003 -10.869092 -3.547726 -6.358598 4.175192 -0.000002 -0.000003 -13.344818 -46.409325 -29.958282 13.747630 -2.381907 -1.419598 6.136599 25.148603 20.108555 31.794985 -4.550496 -0.000010 0.000012 -1168.808089 -530.907927 -432.958479 -0.000003 -0.000002 -11.106503 729.632171 -21.509420 715.918408 0.000002 -0.000006 -12.874290 -288.531889 1.577230 55.679043 2.431898 0.469596 -2.489398 -337.800775 -26.714840 23.963565 0.000001 -0.000012 -18.200199 336.542764 48.246025 15.899456 0.000006 0.000000 -16.279902 -9.368150 34.165303 -12.725479 -1.987992 -0.073500 -2.713001 -47.541299 -37.232194 -26.860996 -0.000001 -0.000003 -19.547792 -1817.825232 41.369496 7.462045 0.000002 0.000014 -14.881194 2235.203339 76.435827 -400.146141
68.059006 -39.726395 42.539104 4333.778415 13.737044 -15.473826 -0.780002 1.005804 5.403100 -9.985237 -11.965985 -4.141204 0.000009 0.000001 4.236802 19.374877 1.822611 2.169703 0.000003 -0.000001 9.874397 -26.309431 -10.896758 35.069599 0.000016 0.000005 2.173893 -2.423824 2.369065 -4.490762 2.681602 -0.377605 5.432493 0.814744 -2.328358 -1.142557 5.161508 -0.000006 0.000003 160.781847 -172.268381 99.229965 0.000006 -0.000000 -10.869104 -3.262806 -6.334088 4.152332 0.000002 0.000002 -13.344808 -46.471665 -29.960813 13.710393 -2.381895 -1.419604 6.136589 25.234303 20.047737 31.789070 -4.550504 -0.000021 0.000018 -1169.005455 -530.876945 -433.024431 0.000011 -0.000005 -11.106503 729.586764 -21.524583 715.932724 0.000003 -0.000007 -12.874295 -288.615271 1.727358 56.472991 2.431898 0.469603 -2.489397 -337.855307 -26.518435 23.853597 0.000006 -0.000007 -18.200199 335.946379 48.153623 16.214038 -0.000010 -0.000003 -16.279898 -8.972733 33.983132 -12.586349 -1.988007 -0.073496 -2.712994 -47.182643 -37.116279 -26.570228 0.000007 0.000001 -19.547791 -1815.637386 41.843972 6.288974 0.000000 0.000002 -14.881195 2232.035442 76.012731 -398.511048
68.062302 -39.719994 42.532803 4333.732516 14.012119 -15.431527 -0.779996 1.005795 5.403094 -9.890426 -12.275734 -4.172385 0.000004 -0.000002 4.236799 19.479918 1.860230 2.176179 0.000001 -0.000004 9.874408 -26.330623 -10.781121 34.968144 0.000005 0.000001 2.173890 -2.521159 2.393331 -4.458338 2.681601 -0.377600 5.432506 0.562787 -2.084826 -1.169206 5.161502 -0.000009 0.000007 160.879888 -172.291372 99.121625 0.000008 -0.000004 -10.869103 -3.044277 -6.309273 4.121570 0.000004 0.000001 -13.344810 -46.573632 -29.901206 13.632622 -2.381902 -1.419605 6.136601 25.237525 20.245307 31.757596 -4.550505 -0.000010 0.000014 -1169.185881 -530.765913 -432.939573 0.000000 -0.000005 -11.106512 729.690692 -21.529905 716.012009 -0.000005 0.000002 -12.874290 -289.116580 1.834263 56.877840 2.431890 0.469594 -2.489389 -337.776787 -26.771659 23.952365 -0.000006 -0.000010 -18.200195 336.487712 48.183126 15.826639 0.000002 -0.000004 -16.279898 -9.285251 33.984156 -12.499990 -1.988010 -0.073502 -2.712994 -47.105933 -37.327974 -26.757384 -0.000003 0.000005 -19.547804 -1817.872005 41.424274 7.284652 -0.000000 0.000007 -14.881190 2234.826094 76.504095 -399.879326
68.063599 -39.712997 42.525906 4333.643341 13.939396 -15.346481 -0.780003 1.005804 5.403089 -9.840682 -12.146195 -4.162037 0.000004 -0.000008 4.236802 19.483757 1.871095 2.175435 0.000010 0.000008 9.874393 -26.358047 -10.791345 34.868980 0.000009 0.000000 2.173894 -2.529126 2.346091 -4.429149 2.681599 -0.377594 5.432493 0.673878 -2.124100 -1.181190 5.161508 0.000003 0.000005 160.246374 -175.959784 99.140865 -0.000003 -0.000004 -10.869116 0.651489 -6.342228 3.938251 0.000000 0.000000 -13.344806 -46.573670 -29.971847 13.708535 -2.381895 -1.419593 6.136588 25.194201 20.213807 31.854213 -4.550502 -0.000001 -0.000000 -1169.067418 -530.642861 -432.972822 0.000003 0.000001 -11.106505 729.826859 -21.404495 716.122877 -0.000004 0.000006 -12.874299 -289.516720 1.676466 55.553323 2.431895 0.469604 -2.489402 -337.809736 -26.694582 23.870908 0.000001 -0.000013 -18.200195 335.986185 48.089118 16.063748 -0.000003 -0.000003 -16.279900 -9.023622 33.814539 -12.286738 -1.988004 -0.073498 -2.713011 -47.029332 -37.256759 -26.723469 -0.000006 -0.000002 -19.547800 -1817.505688 41.562681 7.076032 -0.000003 0.000008 -14.881195 2234.145698 76.475429 -399.387307
68.064102 -39.707294 42.520103 4333.520507 13.918049 -15.278863 -0.779983 1.005803 5.403097 -9.742782 -12.079804 -4.125797 0.000005 0.000004 4.236799 19.307386 1.898270 2.080894 0.000007 -0.000014 9.874397 -26.165719 -10.809532 34.871080 0.000010 0.000002 2.173893 -2.532826 2.305708 -4.475532 2.681610 -0.377608 5.432494 0.923395 -2.275185 -1.208135 5.161504 0.000002 0.000000 160.169097 -176.015286 99.244848 0.000000 0.000000 -10.869097 0.649125 -6.308819 3.883399 -0.000004 -0.000003 -13.344806 -46.510665 -30.047867 13.846269 -2.381901 -1.419609 6.136591 25.186953 20.145192 32.078055 -4.550500 -0.000000 0.000004 -1168.879998 -530.433365 -432.972604 0.000002 -0.000007 -11.106500 730.122907 -21.349063 716.242760 -0.000004 -0.000005 -12.874287 -289.804271 1.635582 55.500379 2.431908 0.469602 -2.489393 -337.805966 -26.633537 23.817107 0.000006 -0.000013 -18.200195 335.412449 47.960577 16.358616 0.000000 0.000001 -16.279900 -8.656575 33.634724 -12.086559 -1.987993 -0.073498 -2.712999 -46.957800 -37.223254 -26.727676 -0.000001 -0.000002 -19.547800 -1817.729937 41.592437 7.175507 -0.000012 0.000003 -14.881194 2234.344156 76.549755 -399.398781
68.066399 -39.699791 42.514301 4333.466740 13.897195 -15.206745 -0.780002 1.005799 5.403092 -9.708012 -12.011893 -4.186033 0.000015 -0.000002 4.236797 19.479850 1.921968 2.123091 -0.000004 -0.000001 9.874407 -26.341209 -10.811714 34.863048 -0.000008 0.000004 2.173897 -2.524039 2.297795 -4.543960 2.681588 -0.377596 5.432499 0.734925 -2.696251 -1.303073 5.161498 0.000000 0.000007 160.650134 -172.855176 99.389300 -0.000001 0.000004 -10.869102 -2.871241 -6.170452 3.949445 0.000000 -0.000002 -13.344799 -46.515204 -30.086877 13.896273 -2.381906 -1.419601 6.136595 24.634436 20.106048 32.118620 -4.550505 0.000006 0.000006 -1168.546247 -530.414131 -432.785812 -0.000000 0.000000 -11.106510 730.225633 -21.314319 716.243471 0.000001 -0.000002 -12.874297 -289.059835 1.371345 55.940359 2.431901 0.469597 -2.489397 -337.884377 -26.604164 23.744417 0.000002 -0.000011 -18.200191 334.823113 47.827174 16.688708 -0.000002 0.000000 -16.279900 -8.230450 33.435770 -11.926777 -1.987994 -0.073500 -2.713005 -47.036419 -37.174473 -26.812381 0.000001 0.000003 -19.547800 -1817.774306 41.654127 7.237852 -0.000001 -0.000003 -14.881191 2234.420435 76.581795 -399.341927
68.065704 -39.691498 42.508102 4333.452314 13.862683 -15.168207 -0.779997 1.005804 5.403095 -9.717330 -11.983597 -4.127634 0.000008 0.000002 4.236794 19.348560 1.929032 2.056613 -0.000002 -0.000003 9.874409 -26.252057 -10.808761 34.843715 0.000010 0.000013 2.173898 -2.486535 2.247392 -4.577270 2.681601 -0.377606 5.432499 0.948919 -2.634643 -1.234722 5.161504 -0.000000 0.000003 160.519636 -172.843551 99.265940 -0.000001 0.000001 -10.869091 -2.815457 -6.141660 3.936729 0.000006 0.000002 -13.344807 -46.524438 -30.087315 13.943046 -2.381902 -1.419600 6.136594 24.838068 19.994243 32.211032 -4.550493 -0.000007 0.000009 -1168.546903 -530.324847 -432.988696 -0.000002 0.000001 -11.106511 730.076134 -21.188661 716.258770 -0.000011 -0.000006 -12.874290 -288.928941 1.382100 56.031863 2.431903 0.469596 -2.489401 -337.879186 -26.554797 23.715597 0.000008 -0.000013 -18.200195 334.252929 47.724741 16.989300 -0.000003 0.000001 -16.279896 -7.889735 33.289000 -11.830270 -1.987999 -0.073498 -2.712999 -47.083018 -37.140649 -26.852421 0.000000 -0.000002 -19.547798 -1818.280068 41.575976 7.519173 -0.000008 0.000007 -14.881188 2235.231534 76.679651 -399.774852
